<?xml version="1.0" encoding="UTF-8" standalone="no"?>
<!DOCTYPE svg PUBLIC "-//W3C//DTD SVG 1.1//EN"
 "http://www.w3.org/Graphics/SVG/1.1/DTD/svg11.dtd">
<!-- Generated by graphviz version 2.43.0 (0)
 -->
<!-- Title: %3 Pages: 1 -->
<svg width="2068pt" height="210pt"
 viewBox="0.00 0.00 2067.69 210.00" xmlns="http://www.w3.org/2000/svg" xmlns:xlink="http://www.w3.org/1999/xlink">
<g id="graph0" class="graph" transform="scale(1 1) rotate(0) translate(4 206)">
<title>%3</title>
<polygon fill="white" stroke="transparent" points="-4,4 -4,-206 2063.69,-206 2063.69,4 -4,4"/>
<!-- 127894986831888 -->
<g id="node1" class="node">
<title>127894986831888</title>
<polygon fill="none" stroke="black" points="920,-137.5 920,-173.5 1204,-173.5 1204,-137.5 920,-137.5"/>
<text text-anchor="middle" x="952.5" y="-151.8" font-family="Times,serif" font-size="14.00">label b</text>
<polyline fill="none" stroke="black" points="985,-137.5 985,-173.5 "/>
<text text-anchor="middle" x="1036" y="-151.8" font-family="Times,serif" font-size="14.00">data 6.8771</text>
<polyline fill="none" stroke="black" points="1087,-137.5 1087,-173.5 "/>
<text text-anchor="middle" x="1145.5" y="-151.8" font-family="Times,serif" font-size="14.00">grad &#45;42.6363</text>
</g>
<!-- 127894986833616+ -->
<g id="node8" class="node">
<title>127894986833616+</title>
<ellipse fill="none" stroke="black" cx="1309" cy="-127.5" rx="27" ry="18"/>
<text text-anchor="middle" x="1309" y="-123.8" font-family="Times,serif" font-size="14.00">+</text>
</g>
<!-- 127894986831888&#45;&gt;127894986833616+ -->
<g id="edge11" class="edge">
<title>127894986831888&#45;&gt;127894986833616+</title>
<path fill="none" stroke="black" d="M1204.1,-139.37C1229.29,-136.5 1253.41,-133.74 1272.06,-131.61"/>
<polygon fill="black" stroke="black" points="1272.56,-135.07 1282.1,-130.46 1271.76,-128.12 1272.56,-135.07"/>
</g>
<!-- 127894986866768 -->
<g id="node2" class="node">
<title>127894986866768</title>
<polygon fill="none" stroke="black" points="1789.69,-109.5 1789.69,-145.5 2059.69,-145.5 2059.69,-109.5 1789.69,-109.5"/>
<text text-anchor="middle" x="1821.69" y="-123.8" font-family="Times,serif" font-size="14.00">label a</text>
<polyline fill="none" stroke="black" points="1853.69,-109.5 1853.69,-145.5 "/>
<text text-anchor="middle" x="1904.69" y="-123.8" font-family="Times,serif" font-size="14.00">data 6.6058</text>
<polyline fill="none" stroke="black" points="1955.69,-109.5 1955.69,-145.5 "/>
<text text-anchor="middle" x="2007.69" y="-123.8" font-family="Times,serif" font-size="14.00">grad 1.0000</text>
</g>
<!-- 127894986866768tanh -->
<g id="node3" class="node">
<title>127894986866768tanh</title>
<ellipse fill="none" stroke="black" cx="1721.85" cy="-127.5" rx="31.7" ry="18"/>
<text text-anchor="middle" x="1721.85" y="-123.8" font-family="Times,serif" font-size="14.00">tanh</text>
</g>
<!-- 127894986866768tanh&#45;&gt;127894986866768 -->
<g id="edge1" class="edge">
<title>127894986866768tanh&#45;&gt;127894986866768</title>
<path fill="none" stroke="black" d="M1753.79,-127.5C1761.39,-127.5 1770.02,-127.5 1779.28,-127.5"/>
<polygon fill="black" stroke="black" points="1779.55,-131 1789.55,-127.5 1779.55,-124 1779.55,-131"/>
</g>
<!-- 127894986833552 -->
<g id="node4" class="node">
<title>127894986833552</title>
<polygon fill="none" stroke="black" points="429.5,-110.5 429.5,-146.5 749.5,-146.5 749.5,-110.5 429.5,-110.5"/>
<text text-anchor="middle" x="480" y="-124.8" font-family="Times,serif" font-size="14.00">label x2*w2</text>
<polyline fill="none" stroke="black" points="530.5,-110.5 530.5,-146.5 "/>
<text text-anchor="middle" x="581.5" y="-124.8" font-family="Times,serif" font-size="14.00">data 0.0000</text>
<polyline fill="none" stroke="black" points="632.5,-110.5 632.5,-146.5 "/>
<text text-anchor="middle" x="691" y="-124.8" font-family="Times,serif" font-size="14.00">grad &#45;42.6363</text>
</g>
<!-- 127894986833744+ -->
<g id="node11" class="node">
<title>127894986833744+</title>
<ellipse fill="none" stroke="black" cx="815" cy="-100.5" rx="27" ry="18"/>
<text text-anchor="middle" x="815" y="-96.8" font-family="Times,serif" font-size="14.00">+</text>
</g>
<!-- 127894986833552&#45;&gt;127894986833744+ -->
<g id="edge14" class="edge">
<title>127894986833552&#45;&gt;127894986833744+</title>
<path fill="none" stroke="black" d="M734.26,-110.49C750.41,-108.47 765.59,-106.56 778.28,-104.97"/>
<polygon fill="black" stroke="black" points="778.84,-108.43 788.32,-103.72 777.96,-101.49 778.84,-108.43"/>
</g>
<!-- 127894986833552* -->
<g id="node5" class="node">
<title>127894986833552*</title>
<ellipse fill="none" stroke="black" cx="364" cy="-128.5" rx="27" ry="18"/>
<text text-anchor="middle" x="364" y="-124.8" font-family="Times,serif" font-size="14.00">*</text>
</g>
<!-- 127894986833552*&#45;&gt;127894986833552 -->
<g id="edge2" class="edge">
<title>127894986833552*&#45;&gt;127894986833552</title>
<path fill="none" stroke="black" d="M391.08,-128.5C399.1,-128.5 408.61,-128.5 419.03,-128.5"/>
<polygon fill="black" stroke="black" points="419.29,-132 429.29,-128.5 419.29,-125 419.29,-132"/>
</g>
<!-- 127894986831504 -->
<g id="node6" class="node">
<title>127894986831504</title>
<polygon fill="none" stroke="black" points="2,-55.5 2,-91.5 299,-91.5 299,-55.5 2,-55.5"/>
<text text-anchor="middle" x="38.5" y="-69.8" font-family="Times,serif" font-size="14.00">label x1</text>
<polyline fill="none" stroke="black" points="75,-55.5 75,-91.5 "/>
<text text-anchor="middle" x="126" y="-69.8" font-family="Times,serif" font-size="14.00">data 2.0000</text>
<polyline fill="none" stroke="black" points="177,-55.5 177,-91.5 "/>
<text text-anchor="middle" x="238" y="-69.8" font-family="Times,serif" font-size="14.00">grad 127.9089</text>
</g>
<!-- 127894986831824* -->
<g id="node15" class="node">
<title>127894986831824*</title>
<ellipse fill="none" stroke="black" cx="364" cy="-73.5" rx="27" ry="18"/>
<text text-anchor="middle" x="364" y="-69.8" font-family="Times,serif" font-size="14.00">*</text>
</g>
<!-- 127894986831504&#45;&gt;127894986831824* -->
<g id="edge12" class="edge">
<title>127894986831504&#45;&gt;127894986831824*</title>
<path fill="none" stroke="black" d="M299.26,-73.5C309.14,-73.5 318.44,-73.5 326.72,-73.5"/>
<polygon fill="black" stroke="black" points="326.98,-77 336.98,-73.5 326.98,-70 326.98,-77"/>
</g>
<!-- 127894986833616 -->
<g id="node7" class="node">
<title>127894986833616</title>
<polygon fill="none" stroke="black" points="1372,-109.5 1372,-145.5 1654,-145.5 1654,-109.5 1372,-109.5"/>
<text text-anchor="middle" x="1403.5" y="-123.8" font-family="Times,serif" font-size="14.00">label z</text>
<polyline fill="none" stroke="black" points="1435,-109.5 1435,-145.5 "/>
<text text-anchor="middle" x="1486" y="-123.8" font-family="Times,serif" font-size="14.00">data 0.8771</text>
<polyline fill="none" stroke="black" points="1537,-109.5 1537,-145.5 "/>
<text text-anchor="middle" x="1595.5" y="-123.8" font-family="Times,serif" font-size="14.00">grad &#45;42.6363</text>
</g>
<!-- 127894986833616&#45;&gt;127894986866768tanh -->
<g id="edge10" class="edge">
<title>127894986833616&#45;&gt;127894986866768tanh</title>
<path fill="none" stroke="black" d="M1654.26,-127.5C1663.28,-127.5 1671.86,-127.5 1679.69,-127.5"/>
<polygon fill="black" stroke="black" points="1679.86,-131 1689.86,-127.5 1679.86,-124 1679.86,-131"/>
</g>
<!-- 127894986833616+&#45;&gt;127894986833616 -->
<g id="edge3" class="edge">
<title>127894986833616+&#45;&gt;127894986833616</title>
<path fill="none" stroke="black" d="M1336.41,-127.5C1343.71,-127.5 1352.19,-127.5 1361.4,-127.5"/>
<polygon fill="black" stroke="black" points="1361.67,-131 1371.67,-127.5 1361.67,-124 1361.67,-131"/>
</g>
<!-- 127894986831568 -->
<g id="node9" class="node">
<title>127894986831568</title>
<polygon fill="none" stroke="black" points="4.5,-165.5 4.5,-201.5 296.5,-201.5 296.5,-165.5 4.5,-165.5"/>
<text text-anchor="middle" x="41" y="-179.8" font-family="Times,serif" font-size="14.00">label x2</text>
<polyline fill="none" stroke="black" points="77.5,-165.5 77.5,-201.5 "/>
<text text-anchor="middle" x="128.5" y="-179.8" font-family="Times,serif" font-size="14.00">data 0.0000</text>
<polyline fill="none" stroke="black" points="179.5,-165.5 179.5,-201.5 "/>
<text text-anchor="middle" x="238" y="-179.8" font-family="Times,serif" font-size="14.00">grad &#45;42.6363</text>
</g>
<!-- 127894986831568&#45;&gt;127894986833552* -->
<g id="edge6" class="edge">
<title>127894986831568&#45;&gt;127894986833552*</title>
<path fill="none" stroke="black" d="M267.67,-165.43C279.03,-162.8 290.3,-159.83 301,-156.5 311.77,-153.15 323.13,-148.41 333.14,-143.77"/>
<polygon fill="black" stroke="black" points="334.75,-146.88 342.27,-139.41 331.74,-140.56 334.75,-146.88"/>
</g>
<!-- 127894986833744 -->
<g id="node10" class="node">
<title>127894986833744</title>
<polygon fill="none" stroke="black" points="878,-82.5 878,-118.5 1246,-118.5 1246,-82.5 878,-82.5"/>
<text text-anchor="middle" x="950" y="-96.8" font-family="Times,serif" font-size="14.00">label x1w1+x2w2</text>
<polyline fill="none" stroke="black" points="1022,-82.5 1022,-118.5 "/>
<text text-anchor="middle" x="1075.5" y="-96.8" font-family="Times,serif" font-size="14.00">data &#45;6.0000</text>
<polyline fill="none" stroke="black" points="1129,-82.5 1129,-118.5 "/>
<text text-anchor="middle" x="1187.5" y="-96.8" font-family="Times,serif" font-size="14.00">grad &#45;42.6363</text>
</g>
<!-- 127894986833744&#45;&gt;127894986833616+ -->
<g id="edge13" class="edge">
<title>127894986833744&#45;&gt;127894986833616+</title>
<path fill="none" stroke="black" d="M1226.42,-118.51C1243.29,-120.37 1258.99,-122.1 1272.02,-123.53"/>
<polygon fill="black" stroke="black" points="1271.98,-127.05 1282.31,-124.67 1272.75,-120.09 1271.98,-127.05"/>
</g>
<!-- 127894986833744+&#45;&gt;127894986833744 -->
<g id="edge4" class="edge">
<title>127894986833744+&#45;&gt;127894986833744</title>
<path fill="none" stroke="black" d="M842.22,-100.5C849.59,-100.5 858.23,-100.5 867.72,-100.5"/>
<polygon fill="black" stroke="black" points="867.92,-104 877.92,-100.5 867.92,-97 867.92,-104"/>
</g>
<!-- 127894986831696 -->
<g id="node12" class="node">
<title>127894986831696</title>
<polygon fill="none" stroke="black" points="0,-0.5 0,-36.5 301,-36.5 301,-0.5 0,-0.5"/>
<text text-anchor="middle" x="38.5" y="-14.8" font-family="Times,serif" font-size="14.00">label w1</text>
<polyline fill="none" stroke="black" points="77,-0.5 77,-36.5 "/>
<text text-anchor="middle" x="130.5" y="-14.8" font-family="Times,serif" font-size="14.00">data &#45;3.0000</text>
<polyline fill="none" stroke="black" points="184,-0.5 184,-36.5 "/>
<text text-anchor="middle" x="242.5" y="-14.8" font-family="Times,serif" font-size="14.00">grad &#45;85.2726</text>
</g>
<!-- 127894986831696&#45;&gt;127894986831824* -->
<g id="edge8" class="edge">
<title>127894986831696&#45;&gt;127894986831824*</title>
<path fill="none" stroke="black" d="M263.21,-36.55C276.05,-39.47 288.88,-42.78 301,-46.5 311.52,-49.73 322.65,-54.22 332.53,-58.6"/>
<polygon fill="black" stroke="black" points="331.38,-61.93 341.93,-62.91 334.3,-55.56 331.38,-61.93"/>
</g>
<!-- 127894986831760 -->
<g id="node13" class="node">
<title>127894986831760</title>
<polygon fill="none" stroke="black" points="9,-110.5 9,-146.5 292,-146.5 292,-110.5 9,-110.5"/>
<text text-anchor="middle" x="47.5" y="-124.8" font-family="Times,serif" font-size="14.00">label w2</text>
<polyline fill="none" stroke="black" points="86,-110.5 86,-146.5 "/>
<text text-anchor="middle" x="137" y="-124.8" font-family="Times,serif" font-size="14.00">data 1.0000</text>
<polyline fill="none" stroke="black" points="188,-110.5 188,-146.5 "/>
<text text-anchor="middle" x="240" y="-124.8" font-family="Times,serif" font-size="14.00">grad 0.0000</text>
</g>
<!-- 127894986831760&#45;&gt;127894986833552* -->
<g id="edge7" class="edge">
<title>127894986831760&#45;&gt;127894986833552*</title>
<path fill="none" stroke="black" d="M292.28,-128.5C304.81,-128.5 316.6,-128.5 326.82,-128.5"/>
<polygon fill="black" stroke="black" points="326.88,-132 336.88,-128.5 326.88,-125 326.88,-132"/>
</g>
<!-- 127894986831824 -->
<g id="node14" class="node">
<title>127894986831824</title>
<polygon fill="none" stroke="black" points="427,-55.5 427,-91.5 752,-91.5 752,-55.5 427,-55.5"/>
<text text-anchor="middle" x="477.5" y="-69.8" font-family="Times,serif" font-size="14.00">label x1*w1</text>
<polyline fill="none" stroke="black" points="528,-55.5 528,-91.5 "/>
<text text-anchor="middle" x="581.5" y="-69.8" font-family="Times,serif" font-size="14.00">data &#45;6.0000</text>
<polyline fill="none" stroke="black" points="635,-55.5 635,-91.5 "/>
<text text-anchor="middle" x="693.5" y="-69.8" font-family="Times,serif" font-size="14.00">grad &#45;42.6363</text>
</g>
<!-- 127894986831824&#45;&gt;127894986833744+ -->
<g id="edge9" class="edge">
<title>127894986831824&#45;&gt;127894986833744+</title>
<path fill="none" stroke="black" d="M739.58,-91.51C753.66,-93.21 766.84,-94.8 778.09,-96.16"/>
<polygon fill="black" stroke="black" points="777.89,-99.66 788.24,-97.39 778.73,-92.71 777.89,-99.66"/>
</g>
<!-- 127894986831824*&#45;&gt;127894986831824 -->
<g id="edge5" class="edge">
<title>127894986831824*&#45;&gt;127894986831824</title>
<path fill="none" stroke="black" d="M391.08,-73.5C398.51,-73.5 407.21,-73.5 416.74,-73.5"/>
<polygon fill="black" stroke="black" points="416.95,-77 426.95,-73.5 416.95,-70 416.95,-77"/>
</g>
</g>
</svg>
